<?xml version="1.0" encoding="iso-8859-1"?>
<!-- Generator: Adobe Illustrator 16.0.0, SVG Export Plug-In . SVG Version: 6.00 Build 0)  -->
<!DOCTYPE svg PUBLIC "-//W3C//DTD SVG 1.1//EN" "http://www.w3.org/Graphics/SVG/1.1/DTD/svg11.dtd">
<svg version="1.1" id="Capa_1" xmlns="http://www.w3.org/2000/svg" xmlns:xlink="http://www.w3.org/1999/xlink" x="0px" y="0px"
	 width="621.804px" height="621.804px" viewBox="0 0 621.804 621.804" style="enable-background:new 0 0 532.745 532.745; fill:#b91b1b;"
	 xml:space="preserve">
<g>
	<g>
		<defs>
			<rect id="SVGID_1_" x="8.296" width="605.212" height="621.804"/>
		</defs>
		<clipPath id="SVGID_2_">
			<use xlink:href="#SVGID_1_"  style="overflow:visible;"/>
		</clipPath>
		<path style="clip-path:url(#SVGID_2_);fill:#b91b1b;" d="M528.871,150.583c0,9.31-7.538,16.843-16.848,16.843H109.781
			c-9.31,0-16.848-7.533-16.848-16.843V135.83c0-9.301,7.538-16.838,16.848-16.838h402.243c9.31,0,16.848,7.552,16.848,16.838
			V150.583L528.871,150.583z M528.871,251.669c0,9.31-7.538,16.838-16.848,16.838H109.781c-9.31,0-16.848-7.528-16.848-16.838
			v-14.753c0-9.301,7.538-16.838,16.848-16.838h402.243c9.31,0,16.848,7.547,16.848,16.838V251.669L528.871,251.669z M562.566,0
			H59.237C31.103,0,8.296,23.001,8.296,51.378v192.91v92.341v51.373h50.941h503.329h50.941v-51.373v-92.331V51.387
			C613.508,23.001,590.706,0,562.566,0L562.566,0z"/>
		<path style="clip-path:url(#SVGID_2_);fill:#b91b1b;" d="M198.642,573.337h-19.924v-16.857v-2.465v-80.456
			c0-15.871-12.638-17.369-16.814-17.483h-4.328c0,0-18.166-0.683-18.166,19.058v78.882v2.465v16.857h-18.426
			c0,0-10.349,0.721-0.01,11.681l31.387,33.297l0,0c0,0,0.028,0.038,0.028,0.058l0.592,0.625c1.683,1.688,6.817,5.708,13.193-0.683
			l32.516-32.614C210.271,574.02,198.642,573.337,198.642,573.337L198.642,573.337z"/>
		<path style="clip-path:url(#SVGID_2_);fill:#b91b1b;" d="M347.916,573.337h-17.749v-16.857v-2.465v-78.352
			c0-15.7-9.12-18.98-14.913-19.588h-7.803c-5.518,0.398-16.573,3.072-16.573,18.279v79.66v2.465v16.857h-19.123
			c-2.73,0.019-10.647,1.138,0.815,13.312l27.182,28.841l0,0l0.019,0.02l2.228,2.37c3.053,2.674,9.083,5.594,17.028-2.39
			c0.009,0,0.009,0,0.028,0l28.86-28.993C360.213,574.152,347.916,573.337,347.916,573.337L347.916,573.337z"/>
		<path style="clip-path:url(#SVGID_2_);fill:#b91b1b;" d="M500.333,573.337h-17.635v-16.857v-2.465v-80.19
			c0-14.411-9.604-17.274-15.378-17.749h-6.864c-5.31,0.304-17.066,2.712-17.066,19.058v78.882v2.465v16.857h-18.355
			c0,0-11.434,1.138,0,13.292l0,0l29.581,31.345l0,0c0,0,0.095,0.113,0.114,0.133l0.266,0.266c1.45,1.517,7.205,6.484,14.069-0.398
			c0.019,0,0.019,0,0.038,0l31.249-31.345C511.786,575.101,500.333,573.337,500.333,573.337L500.333,573.337z"/>
	</g>
</g>
<g>
</g>
<g>
</g>
<g>
</g>
<g>
</g>
<g>
</g>
<g>
</g>
<g>
</g>
<g>
</g>
<g>
</g>
<g>
</g>
<g>
</g>
<g>
</g>
<g>
</g>
<g>
</g>
<g>
</g>
</svg>
