<?xml version="1.0"?>
<svg xmlns="http://www.w3.org/2000/svg" height="512px" viewBox="0 0 512 512" width="512px"><path d="m467 0c-14.667969 0-410.59375 0-422 0-24.8125 0-45 20.1875-45 45v361c0 24.8125 20.1875 45 45 45h42.339844l36.175781 54.316406c2.78125 4.175782 7.464844 6.683594 12.484375 6.683594h210c5.683594 0 10.875-3.210938 13.417969-8.292969l4.660156-9.324219c6.921875-13.84375 12.539063-28.394531 16.835937-43.382812h86.085938c24.8125 0 45-20.1875 45-45v-361c0-24.8125-20.1875-45-45-45zm15 45v286h-91v-49.78125c0-2.246094-.492188-4.378906-1.378906-6.289062-4.945313-19.476563-22.628906-33.929688-43.621094-33.929688-5.855469 0-11.449219 1.136719-16.585938 3.179688-5.203124-19.09375-22.691406-33.179688-43.414062-33.179688-11.515625 0-22.03125 4.355469-30 11.496094-7.96875-7.140625-18.484375-11.496094-30-11.496094-5.257812 0-10.308594.90625-15 2.570312v-32.570312h45c8.285156 0 15-6.714844 15-15v-136h196c8.269531 0 15 6.730469 15 15zm-273.578125 45h32.578125v61h-30v-46c0-5.257812-.914062-10.304688-2.578125-15zm32.578125-60v30h-150v-30zm-120 75v46h-30v-61.011719h32.578125c-1.664063 4.695313-2.578125 9.753907-2.578125 15.011719zm-76-75h16v136c0 8.285156 6.714844 15 15 15h45v31.507812c-34.191406 6.96875-60 37.273438-60 73.492188v45h-31v-286c0-8.269531 6.730469-15 15-15zm-15 376v-45h31v9.617188c0 17.425781 3.339844 34.46875 9.753906 50.382812h-25.753906c-8.269531 0-15-6.730469-15-15zm307.246094 74.96875-.515625 1.03125h-192.699219c-43.390625-65.152344-33.414062-50.238281-34.957031-52.488281-11.824219-17.449219-18.074219-37.816407-18.074219-58.894531 0-10.246094 0-74.363282 0-84.617188 0-19.554688 12.539062-36.226562 30-42.421875v109.394531c0 8.285156 6.714844 15 15 15s15-6.714844 15-15v-247.972656c0-8.269531 6.730469-15 15-15s15 6.730469 15 15v211c0 8.285156 6.714844 15 15 15s15-6.714844 15-15v-60c0-8.269531 6.730469-15 15-15s15 6.730469 15 15v60c0 8.285156 6.714844 15 15 15s15-6.714844 15-15v-60c0-8.269531 6.730469-15 15-15s15 6.730469 15 15v60c0 8.285156 6.714844 15 15 15s15-6.714844 15-15v-30c0-8.269531 6.730469-15 15-15s15 6.730469 15 15v93.34375c0 33.8125-7.648438 69.410156-23.753906 101.625zm129.753906-59.96875h-79.386719c2.226563-13.734375 3.386719-27.675781 3.386719-41.65625v-18.34375h91v45c0 8.269531-6.730469 15-15 15zm0 0" fill="#D80027"/><path d="m391 196c0 8.285156-6.714844 15-15 15s-15-6.714844-15-15 6.714844-15 15-15 15 6.714844 15 15zm0 0" fill="#D80027"/><path d="m451 196c0 8.285156-6.714844 15-15 15s-15-6.714844-15-15 6.714844-15 15-15 15 6.714844 15 15zm0 0" fill="#D80027"/><path d="m316 151h120c8.285156 0 15-6.714844 15-15v-61c0-8.285156-6.714844-15-15-15h-120c-8.285156 0-15 6.714844-15 15v61c0 8.285156 6.714844 15 15 15zm15-61h90v31h-90zm0 0" fill="#D80027"/></svg>
