<?xml version="1.0"?>
<svg xmlns="http://www.w3.org/2000/svg" height="512px" viewBox="-4 0 488 488" width="512px"><path d="m8 96h48v8h-24v16h64v-16h-24v-8h48c4.417969 0 8-3.582031 8-8v-80c0-4.417969-3.582031-8-8-8h-112c-4.417969 0-8 3.582031-8 8v80c0 4.417969 3.582031 8 8 8zm8-80h96v64h-96zm0 0" fill="#005a8f"/><path d="m472 440h-8v-72c0-4.417969-3.582031-8-8-8h-144c-4.417969 0-8 3.582031-8 8v72h-8c-4.417969 0-8 3.582031-8 8 .027344 22.082031 17.917969 39.972656 40 40h112c22.082031-.027344 39.972656-17.917969 40-40 0-4.417969-3.582031-8-8-8zm-152-64h128v64h-128zm120 96h-112c-10.167969-.011719-19.230469-6.417969-22.632812-16h157.265624c-3.402343 9.582031-12.464843 15.988281-22.632812 16zm0 0" fill="#005a8f"/><path d="m336 136h96c4.417969 0 8-3.582031 8-8v-24c0-4.417969-3.582031-8-8-8h-96c-4.417969 0-8 3.582031-8 8v24c0 4.417969 3.582031 8 8 8zm8-24h80v8h-80zm0 0" fill="#005a8f"/><path d="m336 88h96c4.417969 0 8-3.582031 8-8v-24c0-4.417969-3.582031-8-8-8h-96c-4.417969 0-8 3.582031-8 8v24c0 4.417969 3.582031 8 8 8zm8-24h80v8h-80zm0 0" fill="#005a8f"/><path d="m336 40h96c4.417969 0 8-3.582031 8-8v-24c0-4.417969-3.582031-8-8-8h-96c-4.417969 0-8 3.582031-8 8v24c0 4.417969 3.582031 8 8 8zm8-24h80v8h-80zm0 0" fill="#005a8f"/><path d="m128 360h-64c-4.417969 0-8 3.582031-8 8v104c0 4.417969 3.582031 8 8 8h64c4.417969 0 8-3.582031 8-8v-104c0-4.417969-3.582031-8-8-8zm-56 16h48v8h-48zm48 24v40h-48v-40zm0 64h-48v-8h48zm0 0" fill="#005a8f"/><path d="m152 120h48c4.417969 0 8-3.582031 8-8v-88c0-4.417969-3.582031-8-8-8h-48c-4.417969 0-8 3.582031-8 8v88c0 4.417969 3.582031 8 8 8zm8-88h32v72h-32zm0 0" fill="#005a8f"/><path d="m168 72h16v16h-16zm0 0" fill="#005a8f"/><path d="m440 280h-109.601562c6.515624-17.980469 7.367187-37.523438 2.441406-56h91.160156c13.253906 0 24-10.746094 24-24s-10.746094-24-24-24h-24c-4.417969 0-8-3.582031-8-8v-16h-16v16c0 13.253906 10.746094 24 24 24h24c4.417969 0 8 3.582031 8 8s-3.582031 8-8 8h-96.839844c-15.589844-34.113281-49.648437-56-87.15625-56-37.507812 0-71.566406 21.886719-87.15625 56h-128.847656c-4.417969 0-8-3.582031-8-8s3.582031-8 8-8h64c13.253906 0 24-10.746094 24-24v-32h-16v32c0 4.417969-3.582031 8-8 8h-64c-13.253906 0-24 10.746094-24 24s10.746094 24 24 24h123.160156c-4.210937 15.722656-4.210937 32.277344 0 48h-91.160156c-13.253906 0-24 10.746094-24 24s10.746094 24 24 24h24c4.417969 0 8 3.582031 8 8v16h16v-16c0-13.253906-10.746094-24-24-24h-24c-4.417969 0-8-3.582031-8-8s3.582031-8 8-8h96.839844c14.90625 32.640625 46.800781 54.214844 82.644531 55.898438 35.84375 1.683593 69.621094-16.800782 87.523437-47.898438h116.992188c4.417969 0 8 3.582031 8 8s-3.582031 8-8 8h-40c-13.253906 0-24 10.746094-24 24v8h16v-8c0-4.417969 3.582031-8 8-8h40c13.253906 0 24-10.746094 24-24s-10.746094-24-24-24zm-120.40625-40h-25.792969c-1.6875-25.003906-11.523437-48.765625-28-67.648438 29.59375 10.121094 50.597657 36.535157 53.792969 67.648438zm-87.59375-63.199219v63.199219h-29.839844c1.730469-24.046875 12.371094-46.585938 29.839844-63.199219zm0 79.199219v63.199219c-17.46875-16.613281-28.109375-39.152344-29.839844-63.199219zm16 63.199219v-63.199219h29.839844c-1.730469 24.046875-12.371094 46.585938-29.839844 63.199219zm0-79.199219v-63.199219c17.46875 16.613281 28.109375 39.152344 29.839844 63.199219zm-33.792969-67.648438c-16.480469 18.882813-26.316406 42.644532-28.007812 67.648438h-25.792969c3.195312-31.117188 24.203125-57.53125 53.800781-67.648438zm-53.800781 83.648438h25.792969c1.6875 25.003906 11.523437 48.765625 28 67.648438-29.59375-10.121094-50.597657-36.535157-53.792969-67.648438zm105.394531 67.648438c16.476563-18.882813 26.3125-42.644532 28-67.648438h25.792969c-3.195312 31.117188-24.203125 57.53125-53.800781 67.648438zm0 0" fill="#005a8f"/></svg>
