<?xml version="1.0" encoding="utf-8"?>
<!-- Generator: Adobe Illustrator 22.0.1, SVG Export Plug-In . SVG Version: 6.00 Build 0)  -->
<svg version="1.1" id="Capa_1" xmlns="http://www.w3.org/2000/svg" xmlns:xlink="http://www.w3.org/1999/xlink" x="0px" y="0px"
	 viewBox="0 0 45 47" style="enable-background:new 0 0 45 47; fill:#b91b1b;" xml:space="preserve">

<g>
	<path class="st0" d="M3.4,45.2c-0.9,0-1.7-0.3-2.4-1s-1-1.5-1-2.4V3.6c0-0.9,0.3-1.7,1-2.4s1.5-1,2.4-1h38.2c0.9,0,1.7,0.3,2.4,1
		c0.7,0.7,1,1.5,1,2.4v38.3c0,0.9-0.3,1.7-1,2.4c-0.7,0.7-1.5,1-2.4,1H3.4z M2.6,2.8C2.4,3.1,2.2,3.3,2.2,3.6v38.3
		c0,0.3,0.1,0.6,0.3,0.8S3.1,43,3.4,43h38.2c0.3,0,0.6-0.1,0.8-0.3c0.2-0.2,0.3-0.5,0.3-0.8V3.6c0-0.3-0.1-0.6-0.3-0.8
		c-0.2-0.2-0.5-0.3-0.8-0.3H3.4C3.1,2.5,2.8,2.6,2.6,2.8z M5.6,4.7c-0.3,0-0.6,0.1-0.8,0.3S4.5,5.6,4.5,5.9v27
		c0,0.3,0.1,0.6,0.3,0.8S5.3,34,5.6,34h24.3h0h9.4c0.3,0,0.6-0.1,0.8-0.3s0.3-0.5,0.3-0.8v-27c0-0.3-0.1-0.6-0.3-0.8
		s-0.5-0.3-0.8-0.3H5.6z M30.7,31.8c-0.2-0.5-0.6-1-1-1.5c-0.4-0.5-0.9-1-1.6-1.5c-0.7-0.4-1.4-0.8-2.4-1.1c-0.9-0.3-2-0.4-3.3-0.4
		s-2.3,0.1-3.3,0.4c-0.9,0.3-1.7,0.7-2.4,1.1c-0.7,0.4-1.2,0.9-1.6,1.5c-0.4,0.5-0.7,1-1,1.5H6.7V7h31.5v24.7H30.7z M19.9,24.5
		c-0.8-0.4-1.5-0.8-2.1-1.5c-0.6-0.6-1.1-1.3-1.5-2.1s-0.5-1.7-0.5-2.6c0-0.9,0.2-1.8,0.5-2.6s0.8-1.5,1.5-2.1
		c0.6-0.6,1.3-1.1,2.1-1.5c0.8-0.4,1.7-0.5,2.6-0.5s1.8,0.2,2.6,0.5c0.8,0.4,1.5,0.8,2.1,1.5c0.6,0.6,1.1,1.3,1.5,2.1
		s0.5,1.7,0.5,2.6c0,0.9-0.2,1.8-0.5,2.6s-0.8,1.5-1.5,2.1c-0.6,0.6-1.3,1.1-2.1,1.5c-0.8,0.4-1.7,0.5-2.6,0.5S20.7,24.8,19.9,24.5z
		 M19.2,30.1c0.9-0.4,2-0.6,3.3-0.6s2.4,0.2,3.3,0.6c0.9,0.4,1.7,0.9,2.2,1.7H17C17.5,31,18.3,30.4,19.2,30.1z M20.8,14.1
		c-0.5,0.2-1,0.6-1.4,1c-0.4,0.4-0.7,0.9-1,1.4C18.1,17,18,17.6,18,18.3c0,0.6,0.1,1.2,0.4,1.7c0.2,0.5,0.6,1,1,1.4
		c0.4,0.4,0.9,0.7,1.4,1c0.5,0.2,1.1,0.4,1.7,0.4s1.2-0.1,1.7-0.4c0.5-0.2,1-0.6,1.4-1c0.4-0.4,0.7-0.9,1-1.4
		c0.2-0.5,0.4-1.1,0.4-1.7c0-0.6-0.1-1.2-0.4-1.8s-0.6-1-1-1.4s-0.9-0.7-1.4-1c-0.5-0.2-1.1-0.4-1.7-0.4S21.3,13.9,20.8,14.1z
		 M23.6,40.8c-0.3,0-0.6-0.1-0.8-0.3c-0.2-0.2-0.3-0.5-0.3-0.8c0-0.3,0.1-0.6,0.3-0.8c0.2-0.2,0.5-0.3,0.8-0.3h15.8
		c0.3,0,0.6,0.1,0.8,0.3s0.3,0.5,0.3,0.8c0,0.3-0.1,0.6-0.3,0.8s-0.5,0.3-0.8,0.3H23.6z"/>
</g>
</svg>
