<?xml version="1.0" encoding="iso-8859-1"?>
<!-- Generator: Adobe Illustrator 19.0.0, SVG Export Plug-In . SVG Version: 6.00 Build 0)  -->
<svg version="1.1" id="Capa_1" xmlns="http://www.w3.org/2000/svg" xmlns:xlink="http://www.w3.org/1999/xlink" x="0px" y="0px"
	 viewBox="0 0 512 512" style="enable-background:new 0 0 512 512;" xml:space="preserve">
<rect x="53.733" y="342.452" style="fill:#2E3842;" width="404.531" height="103.596"/>
<rect x="112.214" y="95.07" style="fill:#DDDDDD;" width="42.582" height="98.111"/>
<rect x="112.214" y="95.07" style="fill:#C2C4C2;" width="42.582" height="38.527"/>
<path style="fill:#525D66;" d="M504.396,504.396H7.604v-58.35c0-15.369,12.459-27.829,27.829-27.829h441.134
	c15.369,0,27.829,12.459,27.829,27.829v58.35H504.396z"/>
<path style="fill:#2E3842;" d="M73.959,418.218H35.432c-15.369,0-27.828,12.459-27.828,27.828v58.35h38.527v-58.349
	C46.131,430.677,58.59,418.218,73.959,418.218z"/>
<path style="fill:#467EB7;" d="M430.539,177.972H81.457c-27.476,0-49.76,22.285-49.76,49.77v145.672
	c0,11.457,9.287,20.744,20.744,20.744h407.116c11.457,0,20.744-9.287,20.744-20.744V227.743
	C480.3,200.257,458.015,177.972,430.539,177.972z"/>
<path style="fill:#3570A0;" d="M49.946,373.414V227.743c0-27.486,22.285-49.77,49.76-49.77h-18.25
	c-27.476,0-49.76,22.285-49.76,49.77v145.672c0,11.457,9.287,20.744,20.744,20.744h18.25
	C59.233,394.158,49.946,384.871,49.946,373.414z"/>
<path style="fill:#DDDDDD;" d="M211.223,110.277H55.793c-12.413,0-22.475-10.063-22.475-22.475V30.079
	c0-12.413,10.063-22.475,22.475-22.475h155.43c12.413,0,22.475,10.063,22.475,22.475v57.722
	C233.698,100.214,223.636,110.277,211.223,110.277z"/>
<rect x="63.734" y="38.019" style="fill:#2E3842;" width="139.548" height="41.842"/>
<polygon style="fill:#525D66;" points="187.314,38.019 145.472,79.861 80.95,79.861 122.792,38.019 "/>
<path style="fill:#DDDDDD;" d="M411.136,120.415H287.421c-13.992,0-25.334,11.343-25.334,25.334v183.272
	c0,13.992,11.343,25.334,25.334,25.334h123.714c13.992,0,25.334-11.343,25.334-25.334V145.75
	C436.47,131.758,425.127,120.415,411.136,120.415z"/>
<rect x="292.499" y="150.832" style="fill:#2E3842;" width="113.552" height="74.012"/>
<polygon style="fill:#525D66;" points="406.055,150.831 406.055,176.411 357.622,224.843 293.1,224.843 367.112,150.831 "/>
<polygon style="fill:#DDDDDD;" points="190.609,223.829 190.609,344.479 165.262,331.298 139.916,344.479 114.569,331.298 
	89.223,344.479 89.223,223.829 "/>
<rect x="89.22" y="223.83" style="fill:#C2C4C2;" width="101.386" height="23.319"/>
<path d="M476.567,410.614H35.432C15.895,410.614,0,426.509,0,446.046v58.35C0,508.595,3.405,512,7.604,512h496.792
	c4.199,0,7.604-3.405,7.604-7.604v-58.35C512,426.509,496.105,410.614,476.567,410.614z M496.792,496.792H15.208v-50.746
	c0-11.152,9.073-20.224,20.225-20.224h441.134c11.152,0,20.226,9.073,20.226,20.224V496.792z"/>
<path d="M31.696,306.458c4.199,0,7.604-3.405,7.604-7.604v-71.111c0-23.251,18.912-42.166,42.156-42.166h158.527
	c4.199,0,7.604-3.405,7.604-7.604c0-4.199-3.405-7.604-7.604-7.604H81.457c-31.63,0-57.364,25.738-57.364,57.374v71.111
	C24.092,303.053,27.497,306.458,31.696,306.458z"/>
<path d="M52.44,401.762h407.116c15.631,0,28.348-12.717,28.348-28.348V227.743c0-18.975-9.361-36.7-25.042-47.411
	c-3.467-2.369-8.2-1.478-10.567,1.989c-2.368,3.467-1.478,8.199,1.989,10.567c11.53,7.876,18.413,20.906,18.413,34.854v145.672
	c0,7.245-5.895,13.14-13.14,13.14H52.44c-7.245,0-13.14-5.895-13.14-13.14V324.2c0-4.199-3.405-7.604-7.604-7.604
	s-7.604,3.405-7.604,7.604v49.213C24.092,389.045,36.809,401.762,52.44,401.762z"/>
<path d="M55.793,117.881h155.43c16.586,0,30.079-13.493,30.079-30.079V30.079C241.302,13.493,227.809,0,211.223,0H55.793
	C39.207,0,25.714,13.493,25.714,30.079v57.722C25.714,104.387,39.207,117.881,55.793,117.881z M40.921,30.079
	c0-8.2,6.671-14.871,14.871-14.871h155.43c8.2,0,14.871,6.671,14.871,14.871v57.722c0,8.2-6.671,14.871-14.871,14.871H55.793
	c-8.2,0-14.871-6.671-14.871-14.871V30.079z"/>
<path d="M63.733,87.465h139.549c4.199,0,7.604-3.405,7.604-7.604V38.02c0-4.199-3.405-7.604-7.604-7.604H63.733
	c-4.199,0-7.604,3.405-7.604,7.604v41.841C56.129,84.06,59.534,87.465,63.733,87.465z M71.337,45.624h124.341v26.633H71.337V45.624z
	"/>
<path d="M147.195,128.526v31.2c0,4.199,3.405,7.604,7.604,7.604c4.199,0,7.604-3.405,7.604-7.604v-31.2
	c0-4.199-3.405-7.604-7.604-7.604C150.6,120.922,147.195,124.327,147.195,128.526z"/>
<path d="M104.613,128.526v31.2c0,4.199,3.405,7.604,7.604,7.604c4.199,0,7.604-3.405,7.604-7.604v-31.2
	c0-4.199-3.405-7.604-7.604-7.604C108.018,120.922,104.613,124.327,104.613,128.526z"/>
<path d="M287.421,361.96h123.714c18.162,0,32.938-14.776,32.938-32.938V223.829c0-4.199-3.405-7.604-7.604-7.604
	c-4.199,0-7.604,3.405-7.604,7.604v105.192c0,9.777-7.954,17.73-17.73,17.73H287.421c-9.777,0-17.73-7.954-17.73-17.73V145.75
	c0-9.777,7.954-17.73,17.73-17.73h123.714c9.777,0,17.73,7.954,17.73,17.73v52.731c0,4.199,3.405,7.604,7.604,7.604
	c4.199,0,7.604-3.405,7.604-7.604V145.75c0-18.162-14.776-32.938-32.938-32.938H287.421c-18.162,0-32.938,14.776-32.938,32.938
	v183.272C254.482,347.184,269.258,361.96,287.421,361.96z"/>
<path d="M413.658,150.831c0-4.199-3.405-7.604-7.604-7.604H292.502c-4.199,0-7.604,3.405-7.604,7.604v74.012
	c0,4.199,3.405,7.604,7.604,7.604h113.552c4.199,0,7.604-3.405,7.604-7.604V150.831z M398.451,217.239h-98.345v-58.804h98.345
	V217.239z"/>
<path d="M312.778,254.753h-20.277c-4.199,0-7.604,3.405-7.604,7.604c0,4.199,3.405,7.604,7.604,7.604h20.277
	c4.199,0,7.604-3.405,7.604-7.604C320.382,258.158,316.979,254.753,312.778,254.753z"/>
<path d="M406.055,254.753h-20.277c-4.199,0-7.604,3.405-7.604,7.604c0,4.199,3.405,7.604,7.604,7.604h20.277
	c4.199,0,7.604-3.405,7.604-7.604C413.658,258.158,410.254,254.753,406.055,254.753z"/>
<path d="M359.416,254.753H339.14c-4.199,0-7.604,3.405-7.604,7.604c0,4.199,3.405,7.604,7.604,7.604h20.276
	c4.199,0,7.604-3.405,7.604-7.604C367.02,258.158,363.616,254.753,359.416,254.753z"/>
<path d="M312.778,309.501h-20.277c-4.199,0-7.604,3.405-7.604,7.604c0,4.199,3.405,7.604,7.604,7.604h20.277
	c4.199,0,7.604-3.405,7.604-7.604C320.382,312.906,316.979,309.501,312.778,309.501z"/>
<path d="M406.055,309.501h-20.277c-4.199,0-7.604,3.405-7.604,7.604c0,4.199,3.405,7.604,7.604,7.604h20.277
	c4.199,0,7.604-3.405,7.604-7.604C413.658,312.906,410.254,309.501,406.055,309.501z"/>
<path d="M359.416,309.501H339.14c-4.199,0-7.604,3.405-7.604,7.604c0,4.199,3.405,7.604,7.604,7.604h20.276
	c4.199,0,7.604-3.405,7.604-7.604C367.02,312.906,363.616,309.501,359.416,309.501z"/>
<path d="M312.778,282.127h-20.277c-4.199,0-7.604,3.405-7.604,7.604s3.405,7.604,7.604,7.604h20.277
	c4.199,0,7.604-3.405,7.604-7.604S316.979,282.127,312.778,282.127z"/>
<path d="M406.055,282.127h-20.277c-4.199,0-7.604,3.405-7.604,7.604s3.405,7.604,7.604,7.604h20.277
	c4.199,0,7.604-3.405,7.604-7.604S410.254,282.127,406.055,282.127z"/>
<path d="M359.416,282.127H339.14c-4.199,0-7.604,3.405-7.604,7.604s3.405,7.604,7.604,7.604h20.276c4.199,0,7.604-3.405,7.604-7.604
	S363.616,282.127,359.416,282.127z"/>
<path d="M85.277,350.979c2.27,1.378,5.097,1.473,7.454,0.246l21.839-11.356l21.839,11.356c1.099,0.572,2.303,0.858,3.508,0.858
	s2.408-0.286,3.508-0.858l21.839-11.356l21.839,11.356c2.357,1.226,5.184,1.132,7.454-0.246c2.271-1.379,3.658-3.844,3.658-6.5
	V231.433h15.208c4.199,0,7.604-3.405,7.604-7.604c0-4.199-3.405-7.604-7.604-7.604H66.411c-4.199,0-7.604,3.405-7.604,7.604
	c0,4.199,3.405,7.604,7.604,7.604h15.208v113.046C81.619,347.136,83.006,349.6,85.277,350.979z M183.005,231.433v100.52
	l-14.235-7.402c-2.199-1.144-4.817-1.144-7.016,0l-21.839,11.356l-21.839-11.356c-1.099-0.572-2.303-0.858-3.508-0.858
	c-1.204,0-2.408,0.286-3.508,0.858l-14.235,7.402v-100.52L183.005,231.433L183.005,231.433z"/>
<path d="M111.021,261.849h37.512c4.199,0,7.604-3.405,7.604-7.604c0-4.199-3.405-7.604-7.604-7.604h-37.512
	c-4.199,0-7.604,3.405-7.604,7.604C103.417,258.444,106.821,261.849,111.021,261.849z"/>
<path d="M111.021,286.689h52.721c4.199,0,7.604-3.405,7.604-7.604c0-4.199-3.405-7.604-7.604-7.604h-52.721
	c-4.199,0-7.604,3.405-7.604,7.604C103.417,283.284,106.821,286.689,111.021,286.689z"/>
<g>
</g>
<g>
</g>
<g>
</g>
<g>
</g>
<g>
</g>
<g>
</g>
<g>
</g>
<g>
</g>
<g>
</g>
<g>
</g>
<g>
</g>
<g>
</g>
<g>
</g>
<g>
</g>
<g>
</g>
</svg>
